Land_normalized_Motion_pl09
version=1
nRows=10
nColumns=43
inDegrees=yes
endheader
time		pelvis_tilt		pelvis_list		pelvis_rotation		pelvis_tx		pelvis_ty		pelvis_tz		hip_flexion_r		hip_adduction_r		hip_rotation_r		knee_angle_r		ankle_angle_r		subtalar_angle_r		mtp_angle_r		hip_flexion_l		hip_adduction_l		hip_rotation_l		knee_angle_l		ankle_angle_l		subtalar_angle_l		mtp_angle_l		lumbar_extension		lumbar_bending		lumbar_rotation		neck_flexion		neck_lateral_bending		neck_rotation		arm_flex_r		arm_add_r		arm_rot_r		elbow_flex_r		pro_sup_r		wrist_flex_r		wrist_dev_r		hand_finger_flex_r		arm_flex_l		arm_add_l		arm_rot_l		elbow_flex_l		pro_sup_l		wrist_flex_l		wrist_dev_l		hand_finger_flex_l		
1.396667		-2.903708		25.558196		95.435368		0.001500		0.680670		0.560161		39.279637		-5.554243		-6.977719		-97.833949		14.868541		-11.915180		12.716351		38.005395		0.380268		-0.126661		-94.880159		14.039372		-24.009104		12.410080		-70.576884		-3.301984		-7.808649		-0.040302		2.360009		-1.979116		-15.408976		-30.568231		3.829010		39.446114		93.451925		-11.682718		11.973324		40.855573		-11.891233		-30.951163		-10.803844		46.659904		124.452598		-43.650507		-3.515312		89.256698		
1.399369		-2.973026		25.715087		95.348466		0.001591		0.673618		0.559662		40.196973		-5.587640		-6.602836		-99.414800		14.755827		-11.475864		13.129396		38.807622		0.337547		-0.228340		-96.425209		14.122934		-23.834453		12.422419		-71.446388		-3.382828		-7.663884		0.827199		2.446040		-2.303199		-12.599619		-30.805139		4.790878		39.405069		94.734748		-12.201272		12.090126		40.799822		-9.133719		-31.103365		-10.578836		46.774026		125.022060		-43.582738		-3.344798		89.397755		
1.402071		-3.078073		25.732419		95.228583		0.001696		0.666367		0.559029		41.290494		-5.614480		-6.113643		-101.002135		14.663439		-10.913600		13.689902		39.735228		0.281971		-0.394707		-97.933769		14.244891		-23.575668		12.496258		-72.130820		-3.527932		-7.582403		1.595420		2.540036		-2.570142		-9.808014		-31.010496		5.673212		39.379704		96.049287		-12.782549		12.050372		40.806650		-6.456776		-31.147037		-10.554720		46.981551		125.772099		-43.578562		-3.070061		89.621486		
1.404773		-3.274706		25.557647		95.093982		0.001832		0.658772		0.558169		42.619520		-5.673235		-5.473677		-102.625503		14.659950		-10.270244		14.851495		40.840810		0.262593		-0.661525		-99.414955		14.489929		-23.222854		12.729249		-72.576349		-3.783901		-7.625449		2.262820		2.791233		-2.660206		-7.056672		-31.139757		6.437659		39.370256		97.448619		-13.500627		11.733462		41.206932		-3.878162		-31.005216		-10.984511		47.285717		127.083021		-43.617846		-2.458045		89.969256		
1.407475		-3.320515		25.653703		95.025226		0.001683		0.651944		0.557350		43.549789		-5.681977		-5.037083		-104.104263		14.412603		-9.678528		15.437211		41.635768		0.188194		-0.733081		-100.849118		14.550582		-22.943204		12.897156		-73.260490		-3.803219		-7.493883		2.866707		2.753464		-3.050976		-4.325934		-31.350680		7.151013		39.441720		98.436350		-14.046861		11.754843		41.293441		-1.276247		-30.928615		-11.005830		47.680233		127.762795		-43.507280		-2.236627		90.000210		
1.410177		-3.405250		25.548802		94.945862		0.001542		0.644715		0.556281		44.723301		-5.697506		-4.518914		-105.615398		14.316947		-8.915199		16.269128		42.636502		0.115483		-0.850097		-102.295084		14.753738		-22.504102		13.215332		-73.670037		-3.878143		-7.445463		3.351733		2.796524		-3.314931		-1.633893		-31.518348		7.851274		39.535769		99.482835		-14.809843		11.631096		41.490517		1.247306		-30.699384		-11.300988		48.087397		128.674936		-43.427990		-1.881422		90.000210		
1.412879		-3.571946		25.480864		94.913161		0.001261		0.637681		0.555130		45.835567		-5.801679		-3.957537		-107.079455		13.991454		-8.344672		18.677790		43.544129		0.118766		-1.022186		-103.683650		14.916379		-22.134768		14.125014		-74.099569		-3.971944		-7.520321		3.814571		2.946259		-3.430886		1.096736		-31.612519		8.480991		39.544947		100.409668		-15.907194		11.170410		42.961438		3.625033		-30.249094		-12.227002		48.791882		130.698078		-42.889536		-0.877688		90.000210		
1.415581		-3.568208		25.510974		94.874177		0.001061		0.630881		0.553842		46.761796		-5.789510		-3.608105		-108.499772		13.967000		-7.639878		19.023856		44.353238		-0.002887		-1.046109		-105.074449		15.126297		-21.737968		14.320180		-74.550821		-3.929540		-7.336693		4.169608		2.861093		-3.783554		3.636908		-31.742621		8.918434		39.790694		101.145421		-16.543471		11.198712		42.848623		6.159537		-29.965800		-12.304256		49.210058		130.874461		-42.913222		-0.829969		90.000210		
1.418283		-3.629373		25.514772		94.838484		0.000941		0.624146		0.552491		47.710790		-5.781129		-3.202458		-109.896876		13.940619		-6.937503		19.468123		45.150890		-0.135446		-1.148487		-106.432942		15.407198		-21.254867		14.573511		-74.951770		-3.940747		-7.240060		4.491783		2.843362		-4.069375		6.187633		-31.802301		9.196174		40.006866		101.809744		-17.153644		11.090484		42.906611		8.608927		-29.578052		-12.562970		49.713677		131.221446		-43.018546		-0.690521		90.000210		
1.420985		-3.702197		25.546567		94.742099		0.000805		0.617624		0.551149		48.596242		-5.750143		-2.762351		-111.217214		13.930288		-6.293991		20.053635		45.880202		-0.304742		-1.338067		-107.758977		15.721368		-20.761834		14.882582		-75.361098		-4.004763		-7.131362		4.752579		2.814174		-4.329907		8.734053		-31.824429		9.350526		40.217055		102.433777		-17.782364		10.908524		43.167053		11.004770		-29.123508		-12.853834		50.327281		131.656213		-43.088680		-0.466496		90.000210		
